{
	"asset":{
		"generator":"Khronos glTF Blender I/O v3.6.27",
		"version":"2.0"
	},
	"scene":0,
	"scenes":[
		{
			"name":"Scene",
			"nodes":[
				0,
				1,
				2
			]
		}
	],
	"nodes":[
		{
			"mesh":0,
			"name":"Prizemi-patro-P\u0159\u00edzem\u00ed",
			"scale":[
				66.9000015258789,
				4,
				63.20000076293945
			],
			"translation":[
				181.28268432617188,
				4.247760772705078,
				18.046733856201172
			]
		},
		{
			"mesh":1,
			"name":"1.patro-patro-1._Patro",
			"rotation":[
				0,
				0.7071064710617065,
				0,
				0.7071071863174438
			],
			"scale":[
				5.5,
				34,
				4.800000190734863
			],
			"translation":[
				779.894287109375,
				102.24775695800781,
				-584.453369140625
			]
		},
		{
			"mesh":2,
			"name":"2.patro-patro-2._Patro",
			"rotation":[
				0,
				-0.7071067094802856,
				0,
				0.7071068286895752
			],
			"scale":[
				5.550000190734863,
				16,
				63.20000076293945
			],
			"translation":[
				306.3826904296875,
				84.24775695800781,
				86.79673767089844
			]
		}
	],
	"materials":[
		{
			"doubleSided":true,
			"name":"podlaa",
			"pbrMetallicRoughness":{
				"baseColorFactor":[
					0.34932655096054077,
					0.34932655096054077,
					0.34932655096054077,
					1
				],
				"metallicFactor":0,
				"roughnessFactor":0.4000000059604645
			}
		},
		{
			"doubleSided":true,
			"name":"Material",
			"pbrMetallicRoughness":{
				"baseColorTexture":{
					"index":0
				},
				"metallicFactor":0,
				"roughnessFactor":0.5
			}
		},
		{
			"doubleSided":true,
			"name":"strec",
			"pbrMetallicRoughness":{
				"baseColorFactor":[
					0.800000011920929,
					0.800000011920929,
					0.800000011920929,
					1
				],
				"metallicFactor":0,
				"roughnessFactor":0.5
			}
		}
	],
	"meshes":[
		{
			"name":"Cube",
			"primitives":[
				{
					"attributes":{
						"POSITION":0,
						"NORMAL":1,
						"TEXCOORD_0":2
					},
					"indices":3,
					"material":0
				},
				{
					"attributes":{
						"POSITION":4,
						"NORMAL":5,
						"TEXCOORD_0":6
					},
					"indices":7,
					"material":1
				}
			]
		},
		{
			"name":"Cube.503",
			"primitives":[
				{
					"attributes":{
						"POSITION":8,
						"NORMAL":9,
						"TEXCOORD_0":10
					},
					"indices":11,
					"material":1
				},
				{
					"attributes":{
						"POSITION":12,
						"NORMAL":13,
						"TEXCOORD_0":14
					},
					"indices":15,
					"material":0
				}
			]
		},
		{
			"name":"Cube.648",
			"primitives":[
				{
					"attributes":{
						"POSITION":16,
						"NORMAL":17,
						"TEXCOORD_0":18
					},
					"indices":19,
					"material":2
				}
			]
		}
	],
	"textures":[
		{
			"sampler":0,
			"source":0
		}
	],
	"images":[
		{
			"bufferView":8,
			"mimeType":"image/png",
			"name":"zlutaZdi"
		}
	],
	"accessors":[
		{
			"bufferView":0,
			"componentType":5126,
			"count":264,
			"max":[
				10.911511421203613,
				1,
				1.1756329536437988
			],
			"min":[
				-3.5533859729766846,
				-4.170437812805176,
				-16.51740264892578
			],
			"type":"VEC3"
		},
		{
			"bufferView":1,
			"componentType":5126,
			"count":264,
			"type":"VEC3"
		},
		{
			"bufferView":2,
			"componentType":5126,
			"count":264,
			"type":"VEC2"
		},
		{
			"bufferView":3,
			"componentType":5123,
			"count":396,
			"type":"SCALAR"
		},
		{
			"bufferView":4,
			"componentType":5126,
			"count":12092,
			"max":[
				10.911511421203613,
				18,
				1.1756330728530884
			],
			"min":[
				-3.5533862113952637,
				-1.0000019073486328,
				-16.51740264892578
			],
			"type":"VEC3"
		},
		{
			"bufferView":5,
			"componentType":5126,
			"count":12092,
			"type":"VEC3"
		},
		{
			"bufferView":6,
			"componentType":5126,
			"count":12092,
			"type":"VEC2"
		},
		{
			"bufferView":7,
			"componentType":5123,
			"count":18504,
			"type":"SCALAR"
		},
		{
			"bufferView":9,
			"componentType":5126,
			"count":5232,
			"max":[
				80.2544174194336,
				1.000000238418579,
				27.368444442749023
			],
			"min":[
				-1.00001859664917,
				-1,
				-166.85137939453125
			],
			"type":"VEC3"
		},
		{
			"bufferView":10,
			"componentType":5126,
			"count":5232,
			"type":"VEC3"
		},
		{
			"bufferView":11,
			"componentType":5126,
			"count":5232,
			"type":"VEC2"
		},
		{
			"bufferView":12,
			"componentType":5123,
			"count":7848,
			"type":"SCALAR"
		},
		{
			"bufferView":13,
			"componentType":5126,
			"count":260,
			"max":[
				80.25442504882812,
				-0.7647057771682739,
				27.368452072143555
			],
			"min":[
				-1.0000419616699219,
				-0.9999998807907104,
				-166.8513946533203
			],
			"type":"VEC3"
		},
		{
			"bufferView":14,
			"componentType":5126,
			"count":260,
			"type":"VEC3"
		},
		{
			"bufferView":15,
			"componentType":5126,
			"count":260,
			"type":"VEC2"
		},
		{
			"bufferView":16,
			"componentType":5123,
			"count":540,
			"type":"SCALAR"
		},
		{
			"bufferView":17,
			"componentType":5126,
			"count":228,
			"max":[
				1.0000005960464478,
				5.249999046325684,
				5.740846633911133
			],
			"min":[
				-200.47744750976562,
				-1,
				-9.762018203735352
			],
			"type":"VEC3"
		},
		{
			"bufferView":18,
			"componentType":5126,
			"count":228,
			"type":"VEC3"
		},
		{
			"bufferView":19,
			"componentType":5126,
			"count":228,
			"type":"VEC2"
		},
		{
			"bufferView":20,
			"componentType":5123,
			"count":360,
			"type":"SCALAR"
		}
	],
	"bufferViews":[
		{
			"buffer":0,
			"byteLength":3168,
			"byteOffset":0,
			"target":34962
		},
		{
			"buffer":0,
			"byteLength":3168,
			"byteOffset":3168,
			"target":34962
		},
		{
			"buffer":0,
			"byteLength":2112,
			"byteOffset":6336,
			"target":34962
		},
		{
			"buffer":0,
			"byteLength":792,
			"byteOffset":8448,
			"target":34963
		},
		{
			"buffer":0,
			"byteLength":145104,
			"byteOffset":9240,
			"target":34962
		},
		{
			"buffer":0,
			"byteLength":145104,
			"byteOffset":154344,
			"target":34962
		},
		{
			"buffer":0,
			"byteLength":96736,
			"byteOffset":299448,
			"target":34962
		},
		{
			"buffer":0,
			"byteLength":37008,
			"byteOffset":396184,
			"target":34963
		},
		{
			"buffer":0,
			"byteLength":329,
			"byteOffset":433192
		},
		{
			"buffer":0,
			"byteLength":62784,
			"byteOffset":433524,
			"target":34962
		},
		{
			"buffer":0,
			"byteLength":62784,
			"byteOffset":496308,
			"target":34962
		},
		{
			"buffer":0,
			"byteLength":41856,
			"byteOffset":559092,
			"target":34962
		},
		{
			"buffer":0,
			"byteLength":15696,
			"byteOffset":600948,
			"target":34963
		},
		{
			"buffer":0,
			"byteLength":3120,
			"byteOffset":616644,
			"target":34962
		},
		{
			"buffer":0,
			"byteLength":3120,
			"byteOffset":619764,
			"target":34962
		},
		{
			"buffer":0,
			"byteLength":2080,
			"byteOffset":622884,
			"target":34962
		},
		{
			"buffer":0,
			"byteLength":1080,
			"byteOffset":624964,
			"target":34963
		},
		{
			"buffer":0,
			"byteLength":2736,
			"byteOffset":626044,
			"target":34962
		},
		{
			"buffer":0,
			"byteLength":2736,
			"byteOffset":628780,
			"target":34962
		},
		{
			"buffer":0,
			"byteLength":1824,
			"byteOffset":631516,
			"target":34962
		},
		{
			"buffer":0,
			"byteLength":720,
			"byteOffset":633340,
			"target":34963
		}
	],
	"samplers":[
		{
			"magFilter":9729,
			"minFilter":9987
		}
	],
	"buffers":[
		{
			"byteLength":634060,
			"uri":"data:application/octet-stream;base64,"
		}
	]
}
