{
	"asset":{
		"generator":"Khronos glTF Blender I/O v3.6.27",
		"version":"2.0"
	},
	"scene":0,
	"scenes":[
		{
			"name":"Scene",
			"nodes":[
				0,
				1,
				2,
				3
			]
		}
	],
	"nodes":[
		{
			"mesh":0,
			"name":"Prizemi-patro-P\u0159\u00edzem\u00ed",
			"rotation":[
				0,
				-0.7071067094802856,
				0,
				0.7071068286895752
			],
			"scale":[
				32.20000076293945,
				40,
				11
			],
			"translation":[
				-550.7456665039062,
				39.72185516357422,
				-229.48635864257812
			]
		},
		{
			"mesh":1,
			"name":"1.patro-patro-1._Patro",
			"rotation":[
				0,
				0.7071067094802856,
				0,
				0.7071068286895752
			],
			"scale":[
				46.599998474121094,
				40,
				4.300000190734863
			],
			"translation":[
				689.3589477539062,
				119.72185516357422,
				-587.886474609375
			]
		},
		{
			"mesh":2,
			"name":"2.patro-patro-2._Patro",
			"rotation":[
				0,
				-0.7071067094802856,
				0,
				0.7071068286895752
			],
			"scale":[
				10.5,
				40,
				14.100000381469727
			],
			"translation":[
				-195.0457000732422,
				199.72186279296875,
				-551.786376953125
			]
		},
		{
			"mesh":3,
			"name":"zbytekstrechy-patro-St\u0159echa",
			"rotation":[
				0,
				1,
				0,
				4.371138828673793e-08
			],
			"scale":[
				40.20000076293945,
				4,
				9
			],
			"translation":[
				384.8589172363281,
				243.721923828125,
				-359.9666748046875
			]
		}
	],
	"materials":[
		{
			"doubleSided":true,
			"name":"Materialfssf",
			"pbrMetallicRoughness":{
				"baseColorFactor":[
					0.7842309474945068,
					0.7842309474945068,
					0.7842309474945068,
					1
				],
				"metallicFactor":0,
				"roughnessFactor":0.5
			}
		},
		{
			"doubleSided":true,
			"name":"Material",
			"pbrMetallicRoughness":{
				"baseColorFactor":[
					0.800000011920929,
					0.800000011920929,
					0.800000011920929,
					1
				],
				"metallicFactor":0,
				"roughnessFactor":0.5
			}
		},
		{
			"doubleSided":true,
			"name":"Materi\u00e1l564563",
			"pbrMetallicRoughness":{
				"baseColorFactor":[
					0.033065736293792725,
					0,
					0.8000000715255737,
					1
				],
				"metallicFactor":0,
				"roughnessFactor":0.4000000059604645
			}
		},
		{
			"doubleSided":true,
			"name":"podoknem",
			"pbrMetallicRoughness":{
				"baseColorFactor":[
					0.14516949653625488,
					0.0669264942407608,
					0.014725555665791035,
					1
				],
				"metallicFactor":0,
				"roughnessFactor":0.4000000059604645
			}
		}
	],
	"meshes":[
		{
			"name":"Cube",
			"primitives":[
				{
					"attributes":{
						"POSITION":0,
						"NORMAL":1,
						"TEXCOORD_0":2
					},
					"indices":3,
					"material":0
				},
				{
					"attributes":{
						"POSITION":4,
						"NORMAL":5,
						"TEXCOORD_0":6
					},
					"indices":7,
					"material":1
				},
				{
					"attributes":{
						"POSITION":8,
						"NORMAL":9,
						"TEXCOORD_0":10
					},
					"indices":11,
					"material":2
				},
				{
					"attributes":{
						"POSITION":12,
						"NORMAL":13,
						"TEXCOORD_0":14
					},
					"indices":15,
					"material":3
				}
			]
		},
		{
			"name":"Cube.433",
			"primitives":[
				{
					"attributes":{
						"POSITION":16,
						"NORMAL":17,
						"TEXCOORD_0":18
					},
					"indices":19,
					"material":0
				},
				{
					"attributes":{
						"POSITION":20,
						"NORMAL":21,
						"TEXCOORD_0":22
					},
					"indices":23,
					"material":1
				},
				{
					"attributes":{
						"POSITION":24,
						"NORMAL":25,
						"TEXCOORD_0":26
					},
					"indices":27,
					"material":3
				}
			]
		},
		{
			"name":"Cube.690",
			"primitives":[
				{
					"attributes":{
						"POSITION":28,
						"NORMAL":29,
						"TEXCOORD_0":30
					},
					"indices":31,
					"material":0
				},
				{
					"attributes":{
						"POSITION":32,
						"NORMAL":33,
						"TEXCOORD_0":34
					},
					"indices":35,
					"material":3
				}
			]
		},
		{
			"name":"Cube.962",
			"primitives":[
				{
					"attributes":{
						"POSITION":36,
						"NORMAL":37,
						"TEXCOORD_0":38
					},
					"indices":39,
					"material":0
				}
			]
		}
	],
	"accessors":[
		{
			"bufferView":0,
			"componentType":5126,
			"count":7332,
			"max":[
				3.3354034423828125,
				1.0000001192092896,
				1
			],
			"min":[
				-12.57763957977295,
				-1,
				-120.56039428710938
			],
			"type":"VEC3"
		},
		{
			"bufferView":1,
			"componentType":5126,
			"count":7332,
			"type":"VEC3"
		},
		{
			"bufferView":2,
			"componentType":5126,
			"count":7332,
			"type":"VEC2"
		},
		{
			"bufferView":3,
			"componentType":5123,
			"count":11127,
			"type":"SCALAR"
		},
		{
			"bufferView":4,
			"componentType":5126,
			"count":183,
			"max":[
				2.141516923904419,
				1.2000000476837158,
				-18.66099739074707
			],
			"min":[
				0.3478260040283203,
				0.19999995827674866,
				-21.27272605895996
			],
			"type":"VEC3"
		},
		{
			"bufferView":5,
			"componentType":5126,
			"count":183,
			"type":"VEC3"
		},
		{
			"bufferView":6,
			"componentType":5126,
			"count":183,
			"type":"VEC2"
		},
		{
			"bufferView":7,
			"componentType":5123,
			"count":339,
			"type":"SCALAR"
		},
		{
			"bufferView":8,
			"componentType":5126,
			"count":144,
			"max":[
				3.335404872894287,
				-0.8939931988716125,
				1
			],
			"min":[
				-12.57763957977295,
				-1.0439932346343994,
				-120.56039428710938
			],
			"type":"VEC3"
		},
		{
			"bufferView":9,
			"componentType":5126,
			"count":144,
			"type":"VEC3"
		},
		{
			"bufferView":10,
			"componentType":5126,
			"count":144,
			"type":"VEC2"
		},
		{
			"bufferView":11,
			"componentType":5123,
			"count":216,
			"type":"SCALAR"
		},
		{
			"bufferView":12,
			"componentType":5126,
			"count":1680,
			"max":[
				0.8478474020957947,
				0.7467437982559204,
				0.26085278391838074
			],
			"min":[
				-10.141236305236816,
				-0.6730149984359741,
				-112.66928100585938
			],
			"type":"VEC3"
		},
		{
			"bufferView":13,
			"componentType":5126,
			"count":1680,
			"type":"VEC3"
		},
		{
			"bufferView":14,
			"componentType":5126,
			"count":1680,
			"type":"VEC2"
		},
		{
			"bufferView":15,
			"componentType":5123,
			"count":2520,
			"type":"SCALAR"
		},
		{
			"bufferView":16,
			"componentType":5126,
			"count":7093,
			"max":[
				1,
				1.0000004768371582,
				1.000037670135498
			],
			"min":[
				-9.995711326599121,
				-1,
				-290.95452880859375
			],
			"type":"VEC3"
		},
		{
			"bufferView":17,
			"componentType":5126,
			"count":7093,
			"type":"VEC3"
		},
		{
			"bufferView":18,
			"componentType":5126,
			"count":7093,
			"type":"VEC2"
		},
		{
			"bufferView":19,
			"componentType":5123,
			"count":10695,
			"type":"SCALAR"
		},
		{
			"bufferView":20,
			"componentType":5126,
			"count":354,
			"max":[
				-7.842946529388428,
				1.0835082530975342,
				-233.977783203125
			],
			"min":[
				-9.232906341552734,
				-0.9999998807907104,
				-256.02447509765625
			],
			"type":"VEC3"
		},
		{
			"bufferView":21,
			"componentType":5126,
			"count":354,
			"type":"VEC3"
		},
		{
			"bufferView":22,
			"componentType":5126,
			"count":354,
			"type":"VEC2"
		},
		{
			"bufferView":23,
			"componentType":5123,
			"count":654,
			"type":"SCALAR"
		},
		{
			"bufferView":24,
			"componentType":5126,
			"count":1872,
			"max":[
				-0.6835225820541382,
				0.839260995388031,
				-0.17264467477798462
			],
			"min":[
				-8.27684211730957,
				-0.6804198622703552,
				-289.0636901855469
			],
			"type":"VEC3"
		},
		{
			"bufferView":25,
			"componentType":5126,
			"count":1872,
			"type":"VEC3"
		},
		{
			"bufferView":26,
			"componentType":5126,
			"count":1872,
			"type":"VEC2"
		},
		{
			"bufferView":27,
			"componentType":5123,
			"count":2808,
			"type":"SCALAR"
		},
		{
			"bufferView":28,
			"componentType":5126,
			"count":6456,
			"max":[
				40.92380905151367,
				1.0000005960464478,
				26.00708770751953
			],
			"min":[
				-7.876189708709717,
				-1,
				-63.071258544921875
			],
			"type":"VEC3"
		},
		{
			"bufferView":29,
			"componentType":5126,
			"count":6456,
			"type":"VEC3"
		},
		{
			"bufferView":30,
			"componentType":5126,
			"count":6456,
			"type":"VEC2"
		},
		{
			"bufferView":31,
			"componentType":5123,
			"count":9684,
			"type":"SCALAR"
		},
		{
			"bufferView":32,
			"componentType":5126,
			"count":1872,
			"max":[
				33.295310974121094,
				0.839261531829834,
				25.430448532104492
			],
			"min":[
				-0.40455660223960876,
				-0.6804194450378418,
				-62.67107009887695
			],
			"type":"VEC3"
		},
		{
			"bufferView":33,
			"componentType":5126,
			"count":1872,
			"type":"VEC3"
		},
		{
			"bufferView":34,
			"componentType":5126,
			"count":1872,
			"type":"VEC2"
		},
		{
			"bufferView":35,
			"componentType":5123,
			"count":2808,
			"type":"SCALAR"
		},
		{
			"bufferView":36,
			"componentType":5126,
			"count":120,
			"max":[
				23.547378540039062,
				1,
				30.502172470092773
			],
			"min":[
				-7.68159294128418,
				-1.0000102519989014,
				-26.431154251098633
			],
			"type":"VEC3"
		},
		{
			"bufferView":37,
			"componentType":5126,
			"count":120,
			"type":"VEC3"
		},
		{
			"bufferView":38,
			"componentType":5126,
			"count":120,
			"type":"VEC2"
		},
		{
			"bufferView":39,
			"componentType":5123,
			"count":180,
			"type":"SCALAR"
		}
	],
	"bufferViews":[
		{
			"buffer":0,
			"byteLength":87984,
			"byteOffset":0,
			"target":34962
		},
		{
			"buffer":0,
			"byteLength":87984,
			"byteOffset":87984,
			"target":34962
		},
		{
			"buffer":0,
			"byteLength":58656,
			"byteOffset":175968,
			"target":34962
		},
		{
			"buffer":0,
			"byteLength":22254,
			"byteOffset":234624,
			"target":34963
		},
		{
			"buffer":0,
			"byteLength":2196,
			"byteOffset":256880,
			"target":34962
		},
		{
			"buffer":0,
			"byteLength":2196,
			"byteOffset":259076,
			"target":34962
		},
		{
			"buffer":0,
			"byteLength":1464,
			"byteOffset":261272,
			"target":34962
		},
		{
			"buffer":0,
			"byteLength":678,
			"byteOffset":262736,
			"target":34963
		},
		{
			"buffer":0,
			"byteLength":1728,
			"byteOffset":263416,
			"target":34962
		},
		{
			"buffer":0,
			"byteLength":1728,
			"byteOffset":265144,
			"target":34962
		},
		{
			"buffer":0,
			"byteLength":1152,
			"byteOffset":266872,
			"target":34962
		},
		{
			"buffer":0,
			"byteLength":432,
			"byteOffset":268024,
			"target":34963
		},
		{
			"buffer":0,
			"byteLength":20160,
			"byteOffset":268456,
			"target":34962
		},
		{
			"buffer":0,
			"byteLength":20160,
			"byteOffset":288616,
			"target":34962
		},
		{
			"buffer":0,
			"byteLength":13440,
			"byteOffset":308776,
			"target":34962
		},
		{
			"buffer":0,
			"byteLength":5040,
			"byteOffset":322216,
			"target":34963
		},
		{
			"buffer":0,
			"byteLength":85116,
			"byteOffset":327256,
			"target":34962
		},
		{
			"buffer":0,
			"byteLength":85116,
			"byteOffset":412372,
			"target":34962
		},
		{
			"buffer":0,
			"byteLength":56744,
			"byteOffset":497488,
			"target":34962
		},
		{
			"buffer":0,
			"byteLength":21390,
			"byteOffset":554232,
			"target":34963
		},
		{
			"buffer":0,
			"byteLength":4248,
			"byteOffset":575624,
			"target":34962
		},
		{
			"buffer":0,
			"byteLength":4248,
			"byteOffset":579872,
			"target":34962
		},
		{
			"buffer":0,
			"byteLength":2832,
			"byteOffset":584120,
			"target":34962
		},
		{
			"buffer":0,
			"byteLength":1308,
			"byteOffset":586952,
			"target":34963
		},
		{
			"buffer":0,
			"byteLength":22464,
			"byteOffset":588260,
			"target":34962
		},
		{
			"buffer":0,
			"byteLength":22464,
			"byteOffset":610724,
			"target":34962
		},
		{
			"buffer":0,
			"byteLength":14976,
			"byteOffset":633188,
			"target":34962
		},
		{
			"buffer":0,
			"byteLength":5616,
			"byteOffset":648164,
			"target":34963
		},
		{
			"buffer":0,
			"byteLength":77472,
			"byteOffset":653780,
			"target":34962
		},
		{
			"buffer":0,
			"byteLength":77472,
			"byteOffset":731252,
			"target":34962
		},
		{
			"buffer":0,
			"byteLength":51648,
			"byteOffset":808724,
			"target":34962
		},
		{
			"buffer":0,
			"byteLength":19368,
			"byteOffset":860372,
			"target":34963
		},
		{
			"buffer":0,
			"byteLength":22464,
			"byteOffset":879740,
			"target":34962
		},
		{
			"buffer":0,
			"byteLength":22464,
			"byteOffset":902204,
			"target":34962
		},
		{
			"buffer":0,
			"byteLength":14976,
			"byteOffset":924668,
			"target":34962
		},
		{
			"buffer":0,
			"byteLength":5616,
			"byteOffset":939644,
			"target":34963
		},
		{
			"buffer":0,
			"byteLength":1440,
			"byteOffset":945260,
			"target":34962
		},
		{
			"buffer":0,
			"byteLength":1440,
			"byteOffset":946700,
			"target":34962
		},
		{
			"buffer":0,
			"byteLength":960,
			"byteOffset":948140,
			"target":34962
		},
		{
			"buffer":0,
			"byteLength":360,
			"byteOffset":949100,
			"target":34963
		}
	],
	"buffers":[
		{
			"byteLength":949460,
			"uri":"data:application/octet-stream;base64,"
		}
	]
}
