<svg id="a1c6ec4c-2acc-4232-8894-6a45e2969655" data-name="Vrstva 1" xmlns="http://www.w3.org/2000/svg" viewBox="0 0 115.67991 28.8"><defs><style>.\36 a6feb43-4977-4a99-a2c4-06f44952547c{fill:#fff;}.\30 f7e58bf-2607-4c16-b4c7-2866d351fadd,.\36 a6feb43-4977-4a99-a2c4-06f44952547c,.dc329aae-a0a7-4c7a-87ca-e790f0735b50{fill-rule:evenodd;}.dc329aae-a0a7-4c7a-87ca-e790f0735b50{fill:#2f2483;}.\30 f7e58bf-2607-4c16-b4c7-2866d351fadd{fill:#008acc;}</style></defs><title>logo-spstrutnov</title><path class="6a6feb43-4977-4a99-a2c4-06f44952547c" d="M14.2226,26.3999a12.00005,12.00005,0,1,0-12-11.9999A12.02317,12.02317,0,0,0,14.2226,26.3999Z"/><path class="6a6feb43-4977-4a99-a2c4-06f44952547c" d="M3.3829,13.5558l9.6882-3.5302,4.5377-1.6532v2.1929l5.6758-2.1572A10.79607,10.79607,0,0,1,25.094,14.4q0,.279-.0142.5545l-9.667,3.6742-4.5774,1.7396V18.0292l-5.83,2.1243A10.79378,10.79378,0,0,1,3.3506,14.4Q3.3506,13.974,3.3829,13.5558Z"/><path class="dc329aae-a0a7-4c7a-87ca-e790f0735b50" d="M3.6337,16.8678,14.161,13.032l.2413-.0879v2.2624l10.2432-3.8934c.0341.1151.0669.2307.0973.3472L14.2855,15.6351l-.2432.0924V13.4572L3.7222,17.2176C3.691,17.102,3.6609,16.9852,3.6337,16.8678Z"/><path class="dc329aae-a0a7-4c7a-87ca-e790f0735b50" d="M3.3673,15.0026l12.5935-4.5887.2412-.0879v2.2627l7.7848-2.9591c.053.1077.1043.216.1536.3257L16.0852,13.017l-.2432.0924v-2.27L3.3945,15.3748C3.3837,15.2515,3.3741,15.1274,3.3673,15.0026Z"/><path class="dc329aae-a0a7-4c7a-87ca-e790f0735b50" d="M4.2058,18.6222l8.155-2.9716.2412-.0878v2.2626l12.4143-4.7186q.0222.18375.0377.3697L12.4852,18.2537l-.2432.0924v-2.27L4.3523,18.951C4.3019,18.8422,4.2528,18.733,4.2058,18.6222Z"/><path class="0f7e58bf-2607-4c16-b4c7-2866d351fadd" d="M3.3829,13.5558l9.6882-3.5302,4.5377-1.6532v2.1929l5.6758-2.1572A10.86581,10.86581,0,0,0,3.3829,13.5558Z"/><path class="0f7e58bf-2607-4c16-b4c7-2866d351fadd" d="M25.0798,14.9545l-9.667,3.6742-4.5774,1.7396V18.0292l-5.83,2.1243a10.86649,10.86649,0,0,0,20.0744-5.199Z"/><path class="6a6feb43-4977-4a99-a2c4-06f44952547c" d="M32.9357,7.7984a3.733,3.733,0,0,0-1.1803-.1772c-.8702,0-1.7246.4025-1.7246,1.5058,0,1.6325,2.1628,1.2436,2.1628,2.1841,0,.445-.5023.6358-.8767.6358a2.37908,2.37908,0,0,1-1.1166-.3039l-.0921.8901a4.30651,4.30651,0,0,0,1.2648.1919c.9967,0,1.8522-.4104,1.8522-1.4913,0-1.6549-2.1629-1.2937-2.1629-2.1492a.68629.68629,0,0,1,.777-.6852,2.554,2.554,0,0,1,1.0046.2121l.0918-.813Zm1.4128,3.746a1.07112,1.07112,0,0,0,1.1526,1.1806,2.509,2.509,0,0,0,.6996-.0853l-.0281-.7489a.84025.84025,0,0,1-.4314.0986c-.36,0-.4453-.2891-.4453-.6009V9.6922h.841V8.9991h-.841V7.9676l-.9474.3039v.7276h-.6996v.6931h.6996v1.8522Zm2.4599,1.0953h.9474V11.3043c0-.5236,0-1.4842.7702-1.4842a.96969.96969,0,0,1,.424.0773V8.9433a1.04126,1.04126,0,0,0-.2894-.0281,1.11271,1.11271,0,0,0-.9967.9114h-.0147V8.9991h-.8408v3.6406Zm1.5191-4.1349.6996-1.0315h-.6287l-.4799.6222-.4811-.6222H36.794l.6996,1.0315Zm1.7535,1.9576a.824.824,0,0,1,.8411-.8544c.5303,0,.7421.3957.7702.8544Zm2.2482,1.2019a2.45634,2.45634,0,0,1-1.2087.3676.95135.95135,0,0,1-1.0395-.9192h2.5161c0-1.2714-.3813-2.1975-1.7311-2.1975a1.70223,1.70223,0,0,0-1.6895,1.9217A1.73,1.73,0,0,0,41.078,12.725a2.50282,2.50282,0,0,0,1.2512-.2905v-.7702Zm1.7668-.8555c0-.4876.1695-1.1594.7838-1.1594.6078,0,.8487.6503.8487,1.1594,0,.5159-.2052,1.1806-.8342,1.1806-.6222,0-.7983-.6783-.7983-1.1806Zm1.6674,1.8309h.9192V7.3389h-.9473V9.4241h-.0147a1.2914,1.2914,0,0,0-1.0874-.5089c-1.1169,0-1.527.8901-1.527,1.8936,0,.9966.4101,1.9162,1.527,1.9162a1.35117,1.35117,0,0,0,1.1166-.4955h.0136v.4102Zm1.8946,0h.9474V10.8581c0-.4663.1482-1.2087.8342-1.2087.6078,0,.6146.601.6146,1.0463v1.944h.9473V10.3425c0-.8198-.3744-1.4273-1.2367-1.4273a1.35957,1.35957,0,0,0-1.1951.5797h-.0136V8.9991H47.658v3.6406Zm5.2875,0V8.9991h-.9473v3.6406Zm-.898-4.1349h.5865l.9686-1.0315H52.634l-.5865,1.0315Zm3.8602,5.6194h.9474V12.2227h.0136a1.24657,1.24657,0,0,0,1.0672.5023c1.1381,0,1.5483-.9196,1.5483-1.9162,0-1.0035-.4102-1.8936-1.527-1.8936a1.23409,1.23409,0,0,0-1.1311.601h-.0136V8.9991h-.9048v5.1251Zm1.8017-4.4748c.6157,0,.7849.6718.7849,1.1594,0,.5023-.176,1.1806-.7982,1.1806-.629,0-.8342-.6647-.8342-1.1806,0-.5091.2401-1.1594.8475-1.1594Zm2.5384,2.9903h.9474V11.3043c0-.5236,0-1.4842.7704-1.4842a.96933.96933,0,0,1,.4238.0773V8.9433A1.03915,1.03915,0,0,0,62.1,8.9152a1.11271,1.11271,0,0,0-.9967.9114h-.0147V8.9991h-.8408v3.6406Zm6.0713-3.6406h-.9474v1.7816c0,.4666-.1479,1.2087-.8342,1.2087-.6077,0-.6145-.6009-.6145-1.046V8.9991h-.9474v2.2975c0,.8207.3745,1.4284,1.2368,1.4284a1.52154,1.52154,0,0,0,1.1951-.5797h.0136v.4944h.898V8.9991Zm-2.4038-.9606a.75556.75556,0,0,0,.7569.7489.74466.74466,0,0,0,.7489-.7489.75459.75459,0,0,0-.7489-.7557.7657.7657,0,0,0-.7569.7557Zm.3824,0a.37107.37107,0,1,1,.3745.3676.368.368,0,0,1-.3745-.3676ZM67.28,12.6397h.9474V10.8729c0-.4732.0774-1.2235.7075-1.2235.5437,0,.5437.4811.5437.8209v2.1694h.9473V10.8729c0-.4732.0774-1.2235.7064-1.2235.5437,0,.5437.4811.5437.8209v2.1694h.9473V10.3425c0-.813-.2542-1.4273-1.1514-1.4273a1.24761,1.24761,0,0,0-1.1378.6424,1.06356,1.06356,0,0,0-1.0752-.6424,1.282,1.282,0,0,0-1.0809.5931h-.0147V8.9991H67.28v3.6406Zm6.9333-3.6406h-1.046l1.3924,3.8246a.59216.59216,0,0,1-.6143.6502,1.38467,1.38467,0,0,1-.4878-.064l-.0638.6998a2.40064,2.40064,0,0,0,.6715.0987c.9899,0,1.2087-.7917,1.5126-1.5968l1.3643-3.6125h-.9618l-.8759,2.6584H75.09l-.8767-2.6584Zm5.5207.0505a4.35131,4.35131,0,0,0-1.0326-.1344c-.7421,0-1.4273.3464-1.4273,1.1302,0,1.315,1.647.8275,1.647,1.5415,0,.3532-.3824.445-.6222.445a2.08526,2.08526,0,0,1-.9329-.2398l-.057.777a4.25,4.25,0,0,0,1.0752.1559c.7702,0,1.5259-.3399,1.5259-1.1874,0-1.315-1.6461-.9474-1.6461-1.527,0-.3107.3039-.4026.5584-.4026a2.32839,2.32839,0,0,1,.8476.1548l.064-.7132Zm.9329,3.5901h.9474V7.3389h-.9474v5.3008Zm1.7107-1.7949a1.90506,1.90506,0,0,0,3.8098,0,1.90506,1.90506,0,1,0-3.8098,0Zm.9902-.1134a.92776.92776,0,1,1,1.8297,0c0,.6077-.1907,1.258-.9184,1.258-.7208,0-.9113-.6571-.9113-1.258Zm4.5093,1.9083h1.0673l1.3422-3.6406h-.9462l-.8768,2.6507h-.0147l-.9048-2.6507H86.5273l1.3498,3.6406Zm3.1729-2.636a1.90279,1.90279,0,0,1,1.1247-.3957c.5582,0,.8195.1973.8195.7838h-.5235a2.88744,2.88744,0,0,0-1.222.2118,1.07029,1.07029,0,0,0-.6225,1.0394,1.16145,1.16145,0,0,0,1.2727,1.082,1.30085,1.30085,0,0,0,1.1234-.629h.0145a4.46854,4.46854,0,0,0,.0416.5437h.834c-.0213-.2826-.0346-.5369-.0425-.8127-.0068-.2693-.0136-.544-.0136-.9116v-.4663c0-1.0744-.4595-1.5339-1.5696-1.5339a3.243,3.243,0,0,0-1.2645.2759l.0278.8126Zm.481,1.5832c0-.5584.629-.629,1.0528-.629h.4104a1.20345,1.20345,0,0,1-.1984.7489.80375.80375,0,0,1-.6639.3251c-.3396,0-.6009-.1343-.6009-.445Zm.4385-3.0821h.5862l.9689-1.0315h-.9689l-.5862,1.0315Zm7.0118.5448a4.353,4.353,0,0,0-1.0327-.1344c-.7421,0-1.4272.3464-1.4272,1.1302,0,1.315,1.6469.8275,1.6469,1.5415,0,.3532-.3821.445-.6222.445a2.08436,2.08436,0,0,1-.9326-.2398l-.0572.777a4.24853,4.24853,0,0,0,1.0751.1559c.7702,0,1.5259-.3399,1.5259-1.1874,0-1.315-1.6458-.9474-1.6458-1.527,0-.3107.3039-.4026.5582-.4026a2.32987,2.32987,0,0,1,.8478.1548l.0638-.7132Zm-.6863-.5448.6999-1.0315h-.629l-.4799.6222-.4811-.6222h-.6434l.6996,1.0315Zm1.6192,4.1349h.9473V10.8729h.0136l1.2164,1.7668h1.2007l-1.5259-2.0146,1.3567-1.626h-1.1169l-1.131,1.4565h-.0136V7.3389h-.9473v5.3008Zm3.6751-1.7949a1.90506,1.90506,0,0,0,3.8098,0,1.90506,1.90506,0,1,0-3.8098,0Zm.9901-.1134a.9278.9278,0,1,1,1.8298,0c0,.6077-.1908,1.258-.9184,1.258-.7209,0-.9114-.6571-.9114-1.258Zm3.5833,1.9083h.9473V7.3389h-.9473v5.3008Zm2.1348-2.636a1.90126,1.90126,0,0,1,1.1245-.3957c.5584,0,.8195.1973.8195.7838h-.5236a2.88744,2.88744,0,0,0-1.222.2118,1.07023,1.07023,0,0,0-.6222,1.0394,1.16138,1.16138,0,0,0,1.2725,1.082,1.3,1.3,0,0,0,1.1233-.629h.0145a4.45143,4.45143,0,0,0,.0417.5437h.8342c-.0215-.2826-.0349-.5369-.0428-.8127-.0068-.2693-.0133-.544-.0133-.9116v-.4663c0-1.0744-.4598-1.5339-1.5698-1.5339a3.24348,3.24348,0,0,0-1.2646.2759l.0281.8126Zm.481,1.5832c0-.5584.6287-.629,1.0528-.629h.4102a1.20345,1.20345,0,0,1-.1984.7489.80372.80372,0,0,1-.6636.3251c-.3399,0-.601-.1343-.601-.445ZM31.0904,20.6898h.9901V16.5336h1.4137v-.7769H29.6765v.7769h1.4139v4.1562Zm2.3187,0V17.0493h.8408v.8274h.0144a1.113,1.113,0,0,1,.997-.9113,1.04168,1.04168,0,0,1,.2891.028v.9542a.96679.96679,0,0,0-.4238-.0774c-.7701,0-.7701.9606-.7701,1.4842v1.3354Zm6.071-3.6405h-.9473v1.7815c0,.4666-.148,1.2087-.8343,1.2087-.6074,0-.6142-.6009-.6142-1.046V17.0493h-.9474v2.2974c0,.8207.3745,1.4284,1.2365,1.4284a1.52213,1.52213,0,0,0,1.1954-.5797h.0133v.4944h.898V17.0493Zm1.2861,2.5452a1.071,1.071,0,0,0,1.1525,1.1806,2.50853,2.50853,0,0,0,.6996-.0853l-.028-.7489a.8409.8409,0,0,1-.4315.0986c-.36,0-.4453-.2891-.4453-.6009V17.7423h.8411v-.693h-.8411V16.0177l-.9473.3039v.7277h-.6996v.693h.6996v1.8522Zm2.4386,1.0953h.9474V18.9082c0-.4663.1479-1.2087.8342-1.2087.6077,0,.6143.601.6143,1.0463v1.944h.9473V18.3926c0-.8198-.3745-1.4272-1.2365-1.4272a1.36017,1.36017,0,0,0-1.1953.5796h-.0134v-.4957h-.898v3.6405Zm4.0856-1.7949a1.90506,1.90506,0,0,0,3.8098,0,1.90506,1.90506,0,1,0-3.8098,0Zm.9899-.1134a.92776.92776,0,1,1,1.8297,0c0,.6078-.1905,1.258-.9181,1.258-.7209,0-.9116-.657-.9116-1.258Zm4.5096,1.9083h1.0672l1.342-3.6405h-.9462l-.8768,2.6506h-.0145l-.9048-2.6506H51.4397l1.3502,3.6405Zm2.1345.777.4518-1.7669h1.0259l-.6435,1.7669Zm7.0838-5.6183a3.73725,3.73725,0,0,0-1.1807-.1772c-.8699,0-1.7243.4026-1.7243,1.5058,0,1.6325,2.1626,1.2436,2.1626,2.1841,0,.445-.5023.6358-.8768.6358a2.37908,2.37908,0,0,1-1.1166-.3039l-.0918.8901a4.3055,4.3055,0,0,0,1.2645.1919c.9967,0,1.8522-.4104,1.8522-1.4913,0-1.6549-2.1626-1.2937-2.1626-2.1492a.68616.68616,0,0,1,.777-.6852,2.55256,2.55256,0,0,1,1.0043.2121l.0922-.813Zm-.7713-.3745.6579-.7781h-.6579l-.4519.4598-.4518-.4598h-.6718l.657.7781Zm1.8946,5.2158h.9474V18.923h.0136l1.2163,1.7668h1.2008l-1.5259-2.0146,1.3566-1.6259H65.2238l-1.1313,1.4564h-.0136V15.389h-.9474v5.3008Zm3.6751-1.7949a1.90506,1.90506,0,0,0,3.8098,0,1.90506,1.90506,0,1,0-3.8098,0Zm.9902-.1134a.9278.9278,0,1,1,1.8298,0c0,.6078-.1905,1.258-.9182,1.258-.7211,0-.9116-.657-.9116-1.258Zm3.5833,1.9083h.9473V15.389h-.9473v5.3008Zm1.944,0h.9476V18.9082c0-.4663.148-1.2087.8339-1.2087.6078,0,.6146.601.6146,1.0463v1.944h.9473V18.3926c0-.8198-.3744-1.4272-1.2367-1.4272a1.3596,1.3596,0,0,0-1.1951.5796h-.0133v-.4957h-.8983v3.6405Zm5.2877,0V17.0493h-.9476v3.6405Zm-.8983-4.1349H78.3l.9686-1.0315H78.3l-.5865,1.0315Zm3.9311.3611.4944.6424.8342-.6784v3.8098h.9899V15.7567h-.8768L81.6446,16.916Zm5.3288,3.1235c-.7276,0-.7208-1.1806-.7208-1.8017,0-.6369,0-1.8309.7208-1.8309.7356,0,.7356,1.194.7356,1.8309,0,.6211.0066,1.8017-.7356,1.8017Zm0,.7356c1.4284,0,1.7244-1.3926,1.7244-2.5373,0-1.1457-.2824-2.5665-1.7244-2.5665-1.3354,0-1.7098,1.3286-1.7098,2.5665,0,1.0316.1908,2.5373,1.7098,2.5373Zm2.5305-3.8591.4944.6424.8342-.6784v3.8098h.9902V15.7567h-.8768Z"/></svg>